<svg width="180" height="180" viewBox="0 0 180 180" fill="none" xmlns="http://www.w3.org/2000/svg">
<path d="M90 180C139.706 180 180 139.706 180 90C180 40.2944 139.706 0 90 0C40.2944 0 0 40.2944 0 90C0 139.706 40.2944 180 90 180Z" fill="black"/>
<path fill-rule="evenodd" clip-rule="evenodd" d="M90.0189 22.4098C91.1526 22.4031 92.2501 22.9337 92.9454 23.8837L121.681 63.1418C121.767 63.2566 121.846 63.3763 121.918 63.5002C121.992 63.6277 122.058 63.7598 122.115 63.8954C122.212 64.1223 122.286 64.3593 122.334 64.6029L136.232 128.095C136.24 128.135 136.249 128.175 136.256 128.214C136.272 128.299 136.285 128.384 136.295 128.47C136.348 128.923 136.314 129.385 136.194 129.828C136.112 130.129 135.991 130.422 135.83 130.699C135.588 131.114 135.27 131.469 134.9 131.751C134.813 131.817 134.723 131.879 134.631 131.937L91.952 158.679C91.3589 159.051 90.6874 159.233 90.0189 159.229C89.3503 159.233 88.6789 159.051 88.0858 158.679L45.4069 131.937C45.4067 131.937 45.4066 131.937 45.4065 131.937C45.3798 131.92 45.3534 131.903 45.3272 131.885C44.7958 131.533 44.3803 131.055 44.1047 130.509C43.987 130.276 43.8962 130.033 43.8323 129.785C43.7193 129.346 43.6903 128.891 43.7456 128.444C43.7587 128.338 43.7766 128.232 43.7993 128.127C43.8017 128.116 43.804 128.105 43.8065 128.094L57.7036 64.6026C57.7586 64.3273 57.8455 64.0603 57.9615 63.807C58.0136 63.6933 58.0715 63.5823 58.1351 63.4745C58.2027 63.3598 58.2768 63.2488 58.3569 63.142L87.0923 23.8837C87.7877 22.9337 88.8851 22.4031 90.0189 22.4098ZM86.3973 37.0234L65.2203 65.9553L70.1208 81.3447L86.3973 52.6216V37.0234ZM90.0189 60.8346L73.0982 90.6947L84.1133 125.286H95.9245L106.94 90.6947L90.0189 60.8346ZM111.777 99.2318L103.481 125.286H126.542L111.777 99.2318ZM120.194 132.486H101.188L96.4504 147.364L120.194 132.486ZM90.0189 143.832L93.6318 132.486H86.406L90.0189 143.832ZM76.5571 125.286L68.2604 99.2318L53.4962 125.286H76.5571ZM55.9271 106.392L65.2831 89.8818L61.88 79.195L55.9271 106.392ZM59.8437 132.486H78.8498L83.5874 147.364L59.8437 132.486ZM124.111 106.393L114.755 89.8818L118.158 79.195L124.111 106.393ZM114.817 65.9553L109.917 81.3447L93.6405 52.6216V37.0234L114.817 65.9553Z" fill="white"/>
</svg>
