<svg width="50" height="50" viewBox="0 0 50 50" fill="none" xmlns="http://www.w3.org/2000/svg">
<path fill-rule="evenodd" clip-rule="evenodd" d="M25 49.2188C38.3757 49.2188 49.2188 38.3757 49.2188 25C49.2188 11.6243 38.3757 0.78125 25 0.78125C11.6243 0.78125 0.78125 11.6243 0.78125 25C0.78125 38.3757 11.6243 49.2188 25 49.2188Z" fill="#B1ECFF"/>
<mask id="mask0" mask-type="alpha" maskUnits="userSpaceOnUse" x="0" y="0" width="50" height="50">
<path fill-rule="evenodd" clip-rule="evenodd" d="M25 49.2188C38.3757 49.2188 49.2188 38.3757 49.2188 25C49.2188 11.6243 38.3757 0.78125 25 0.78125C11.6243 0.78125 0.78125 11.6243 0.78125 25C0.78125 38.3757 11.6243 49.2188 25 49.2188Z" fill="#B1ECFF"/>
</mask>
<g mask="url(#mask0)">
<path d="M48.8281 35.9375H1.17188V51.1719H48.8281V35.9375Z" fill="#1253FC"/>
<path d="M24.4845 46.4844V44.6563H20.8634V43.1914H23.9572V41.3633H20.8634V39.9688H24.4845V38.1406H18.8126V46.4844H24.4845Z" fill="white"/>
<path d="M32.0008 43.8359H29.9149C29.786 44.3047 29.5281 44.7266 28.8485 44.7266C28.4735 44.7266 28.1922 44.5742 28.0399 44.375C27.8524 44.1289 27.7235 43.8359 27.7235 42.3125C27.7235 40.7891 27.8524 40.4961 28.0399 40.25C28.1922 40.0508 28.4735 39.8984 28.8485 39.8984C29.5281 39.8984 29.786 40.3203 29.9149 40.7891H32.0008C31.6961 38.9492 30.4188 38.0703 28.8367 38.0703C27.8641 38.0703 27.1258 38.3984 26.5164 39.0078C25.6375 39.8867 25.6727 41.0586 25.6727 42.3125C25.6727 43.5664 25.6375 44.7383 26.5164 45.6172C27.1258 46.2266 27.8641 46.5547 28.8367 46.5547C30.4188 46.5547 31.6961 45.6758 32.0008 43.8359Z" fill="white"/>
<path fill-rule="evenodd" clip-rule="evenodd" d="M27.5508 14.0075C27.5508 10.2059 25.7308 6.93692 24.3461 5.87309C24.3404 5.86942 24.2398 5.81168 24.2484 5.96442C24.2484 5.96586 24.247 5.9666 24.247 5.96879C24.1321 13.3083 20.4462 15.2971 18.4202 17.9772C13.7439 24.1608 18.0927 30.9406 22.5211 32.1937C24.999 32.8944 21.9487 30.953 21.5559 26.8518C21.0811 21.895 27.5508 18.1109 27.5508 14.0075Z" fill="#1253FC"/>
<path fill-rule="evenodd" clip-rule="evenodd" d="M29.98 16.5061C29.9498 16.4864 29.9067 16.4733 29.8773 16.52C29.7961 17.4443 28.8057 19.42 27.551 21.235C23.2942 27.3901 25.7196 30.358 27.0835 31.9516C27.8756 32.8766 27.0834 31.9516 29.0628 31.0061C29.2187 30.9316 32.9253 28.95 33.3268 24.4353C33.7154 20.063 30.9603 17.307 29.98 16.5061Z" fill="#00ACE4"/>
</g>
</svg>
