<svg width="14" height="14" viewBox="0 0 14 14" fill="none"
  xmlns="http://www.w3.org/2000/svg">
  <path d="M5.25 11.0833C2.74983 11.8708 2.74983 9.59583 1.75 9.33333L5.25 11.0833ZM8.75 12.25V10.2083C8.75 9.625 8.80775 9.38875 8.45833 9.04167C10.0864 8.86667 11.6667 8.24483 11.6667 5.51833C11.6644 4.81608 11.3849 4.14312 10.8891 3.64583C11.0061 3.34455 11.0622 3.02306 11.0542 2.69995C11.0462 2.37684 10.9742 2.05853 10.8424 1.76342C10.8424 1.76342 10.2299 1.58842 8.81475 2.5025C7.6248 2.19233 6.3752 2.19233 5.18525 2.5025C3.7695 1.58842 3.15758 1.76342 3.15758 1.76342C3.02579 2.05853 2.9538 2.37684 2.94579 2.69995C2.93778 3.02306 2.99391 3.34455 3.11092 3.64583C2.86354 3.89388 2.66752 4.18829 2.53409 4.51221C2.40066 4.83612 2.33244 5.18318 2.33333 5.5335C2.33333 8.24017 3.91358 8.84683 5.54167 9.04167C5.19692 9.38525 5.215 9.73175 5.25 10.2083V12.25" fill="#00B812" />
  <path d="M8.75 12.25V10.2083C8.75 9.625 8.80775 9.38875 8.45833 9.04167C10.0864 8.86667 11.6667 8.24483 11.6667 5.51833C11.6644 4.81608 11.3849 4.14312 10.8891 3.64583C11.0061 3.34455 11.0622 3.02306 11.0542 2.69995C11.0462 2.37684 10.9742 2.05853 10.8424 1.76342C10.8424 1.76342 10.2299 1.58842 8.81475 2.5025C7.6248 2.19233 6.3752 2.19233 5.18525 2.5025C3.7695 1.58842 3.15758 1.76342 3.15758 1.76342C3.02579 2.05853 2.9538 2.37684 2.94579 2.69995C2.93778 3.02306 2.99391 3.34455 3.11092 3.64583C2.86354 3.89388 2.66752 4.18829 2.53409 4.51221C2.40066 4.83612 2.33244 5.18318 2.33333 5.5335C2.33333 8.24017 3.91358 8.84683 5.54167 9.04167C5.19692 9.38525 5.215 9.73175 5.25 10.2083V12.25M5.25 11.0833C2.74983 11.8708 2.74983 9.59583 1.75 9.33333L5.25 11.0833Z" stroke="#00B812" strokeWidth="0.816667" strokeLinecap="round" strokeLinejoin="round" />
</svg>