<svg width="40" height="40" viewBox="0 0 40 40" fill="none" xmlns="http://www.w3.org/2000/svg">
<rect width="40" height="40" rx="20" fill="white"/>
<path d="M25.8333 15.3392C25.25 15.625 24.6783 15.7411 24.0833 15.9167C23.4294 15.1787 22.4599 15.1379 21.5283 15.4867C20.5967 15.8356 19.9865 16.6884 20 17.6667V18.25C18.107 18.2984 16.4212 17.4362 15.3333 15.9167C15.3333 15.9167 12.8938 20.2526 17.6666 22.3333C16.5746 23.0607 15.4855 23.5513 14.1666 23.5C16.0963 24.5517 18.1992 24.9134 20.0198 24.3849C22.1081 23.7782 23.8243 22.2132 24.4829 19.8687C24.6793 19.1557 24.7769 18.4191 24.7728 17.6795C24.7716 17.5342 25.6536 16.0625 25.8333 15.3386V15.3392Z" fill="#00B812" stroke="#00B812" stroke-width="1.16667" stroke-linecap="round" stroke-linejoin="round"/>
</svg>
