<svg width="40" height="40" viewBox="0 0 40 40" fill="none" xmlns="http://www.w3.org/2000/svg">
<rect width="40" height="40" rx="20" fill="white"/>
<path d="M24.7798 21.2816C24.7798 23.2427 22.1373 25.0289 18.9896 25.0289C16.1021 25.0283 13.5833 23.6102 13.5833 21.4782C13.5833 20.3424 14.2716 19.0941 15.4733 17.9268C17.1253 16.325 19.1068 15.5742 20.0571 16.4988C20.3476 16.78 20.4788 17.1533 20.4765 17.5827C21.6286 17.2467 22.6057 17.347 23.0916 18.0213C23.3535 18.3847 23.4019 18.8263 23.2818 19.3087C24.1632 19.6646 24.7798 20.3412 24.7798 21.2816ZM26.3046 19.1308C26.2658 19.2806 26.169 19.4088 26.0357 19.4872C25.9023 19.5657 25.7433 19.5879 25.5935 19.5491C25.4437 19.5102 25.3155 19.4135 25.2371 19.2802C25.1587 19.1468 25.1364 18.9878 25.1753 18.838C25.2756 18.4534 25.276 18.0496 25.1764 17.6648C25.0769 17.28 24.8807 16.927 24.6065 16.6393C24.3323 16.3516 23.9891 16.1387 23.6096 16.0208C23.23 15.9029 22.8266 15.8839 22.4377 15.9657C22.3623 15.9823 22.2843 15.9838 22.2084 15.9701C22.1324 15.9563 22.0599 15.9277 21.9951 15.8857C21.9303 15.8438 21.8745 15.7894 21.8308 15.7257C21.7872 15.662 21.7566 15.5903 21.7409 15.5147C21.7252 15.4392 21.7247 15.3612 21.7393 15.2854C21.7539 15.2096 21.7835 15.1375 21.8262 15.0732C21.8689 15.0089 21.924 14.9537 21.9882 14.9108C22.0524 14.868 22.1245 14.8383 22.2003 14.8235C22.7834 14.7014 23.3881 14.7302 23.957 14.9072C24.526 15.0842 25.0403 15.4034 25.4513 15.8348C25.8623 16.2661 26.1564 16.7953 26.3057 17.3721C26.4551 17.9489 26.4547 18.5542 26.3046 19.1308Z" fill="#00B812"/>
</svg>
