<svg width="180" height="180" viewBox="0 0 180 180" fill="none" xmlns="http://www.w3.org/2000/svg">
<path d="M180 89.9995C180 139.705 139.706 180 90.0006 180C40.2944 180 0 139.705 0 89.9995C0 40.2941 40.2944 0 90.0006 0C139.706 0 180 40.2941 180 89.9995" fill="#BEBEBE"/>
<path d="M160.892 90.0005C160.892 129.15 129.153 160.892 90.0005 160.892C50.8487 160.892 19.1073 129.15 19.1073 90.0005C19.1073 50.8473 50.8487 19.1078 90.0005 19.1078C129.153 19.1078 160.892 50.8468 160.892 90.0005Z" fill="#BEBEBE"/>
<path d="M84.7403 114.042L90.586 92.0304L104.426 86.9741L107.869 74.0378L107.751 73.7169L94.1275 78.6939L103.943 41.7335H76.1053L63.2685 89.9677L52.5506 93.8831L49.0092 107.22L59.7188 103.307L52.1532 131.734H126.241L130.991 114.042H84.7403Z" fill="white"/>
</svg>
