<svg width="180" height="180" viewBox="0 0 180 180" fill="none" xmlns="http://www.w3.org/2000/svg">
<path d="M90 180C139.706 180 180 139.706 180 90C180 40.2944 139.706 0 90 0C40.2944 0 0 40.2944 0 90C0 139.706 40.2944 180 90 180Z" fill="#F7931B"/>
<path d="M101.494 98.2509C102.844 99.4569 105.116 101.916 104.014 106.041C102.906 110.167 100.162 111.196 97.9627 111.747C95.7667 112.294 91.6807 112.212 87.9007 111.495C84.1135 110.775 78.5983 109.17 78.5983 109.17L83.4295 91.1373C83.4295 91.1373 88.8151 92.2857 92.8831 93.6717C96.9511 95.0541 100.141 97.0449 101.494 98.2509ZM92.6239 84.6321C89.5459 83.9337 85.6759 82.7709 85.6723 82.7709L90.0211 66.5457C90.0211 66.5457 92.7391 67.0209 95.3491 67.7625C97.9555 68.5005 100.234 69.1989 103.392 71.1825C106.542 73.1625 107.877 76.2981 107.136 79.3833C106.39 82.4685 104.515 84.1569 101.826 84.8229C99.1363 85.4925 95.7055 85.3305 92.6239 84.6321ZM110.192 122.814C116.179 120.628 118.796 115.394 120.405 109.843C122.021 104.299 120.931 99.9213 118.659 96.9981C116.384 94.0713 112.554 92.1201 112.554 92.1201C112.554 92.1201 116.528 91.0401 118.472 89.4093C120.416 87.7857 121.95 84.8697 122.497 83.2893C123.048 81.7089 125.132 75.0273 120.938 69.7353C117.698 65.6421 113.378 63.2049 107.251 61.1457L110.901 47.5089L102.542 45.2697L98.9311 58.7445L92.5663 57.0381L96.1771 43.5633L87.8179 41.3241L84.2071 54.7989L67.7623 50.3925L65.4223 59.1225L70.2571 60.4185C71.5747 60.7713 73.8787 61.5453 74.5771 62.9313C75.2719 64.3173 75.2899 64.9545 74.7067 67.1361L65.3827 101.919C65.1667 102.747 64.7347 103.726 63.8527 104.205C62.9707 104.684 62.2255 104.655 60.5443 104.205L55.5475 102.862L51.1195 112.5L67.5679 116.906L63.9679 130.345L72.3271 132.584L75.9271 119.149L82.2919 120.852L78.6919 134.29L87.0511 136.53L90.7123 122.871C92.9083 123.325 94.9603 123.699 96.1807 123.858C98.6467 124.182 104.209 124.999 110.195 122.814H110.192Z" fill="white"/>
</svg>
