<svg width="180" height="180" viewBox="0 0 180 180" fill="none" xmlns="http://www.w3.org/2000/svg">
<path d="M90.102 20C76.0347 20.0527 62.5586 25.6642 52.6114 35.6114C42.6642 45.5586 37.0527 59.0347 37 73.102C36.9993 78.9672 37.9442 84.7941 39.7984 90.3585C40.4641 92.1796 41.8011 93.6772 43.5353 94.5443C45.2696 95.4115 47.2699 95.5825 49.1262 95.0224C50.9278 94.3378 52.4001 92.991 53.2421 91.2574C54.0842 89.5237 54.2325 87.5339 53.6568 85.6946C52.0796 81.3674 51.3775 76.77 51.5914 72.1692C51.8117 64.7423 54.187 57.5398 58.4279 51.4388C62.6688 45.3378 68.5923 40.6017 75.477 37.8072C82.3616 35.0128 89.9103 34.2807 97.2037 35.7001C104.497 37.1194 111.22 40.629 116.554 45.8013C121.889 50.9737 125.604 57.5856 127.247 64.8317C128.891 72.0778 128.391 79.6455 125.81 86.613C123.23 93.5805 118.678 99.6471 112.711 104.074C106.743 108.501 99.6174 111.097 92.2008 111.546C92.2008 111.546 84.7718 112.012 81.0407 112.479C79.6725 112.672 78.3158 112.939 76.9764 113.278C76.8802 113.35 76.7612 113.386 76.6412 113.377C76.5212 113.368 76.4083 113.317 76.3233 113.232C76.2382 113.147 76.1867 113.034 76.1782 112.914C76.1696 112.794 76.2047 112.675 76.2768 112.579L77.4428 106.282L84.4387 74.6011C84.8407 72.7148 84.4769 70.746 83.4273 69.1279C82.3777 67.5098 80.7283 66.3749 78.842 65.9729C76.9557 65.5709 74.9869 65.9347 73.3688 66.9843C71.7506 68.0339 70.6158 69.6832 70.2138 71.5696C70.2138 71.5696 53.5569 148.924 53.5569 149.624C53.3275 150.557 53.2911 151.527 53.4498 152.475C53.6084 153.423 53.9589 154.329 54.4797 155.136C55.0005 155.944 55.6807 156.637 56.4787 157.173C57.2766 157.708 58.1755 158.076 59.1203 158.252C60.0557 158.476 61.027 158.508 61.975 158.345C62.923 158.182 63.828 157.828 64.635 157.304C65.442 156.781 66.1342 156.099 66.6694 155.3C67.2046 154.5 67.5718 153.601 67.7485 152.655C67.9817 151.722 70.0805 141.462 70.0805 141.462C70.8536 137.685 72.7658 134.236 75.5594 131.579C78.353 128.923 81.8938 127.186 85.7046 126.604C87.3037 126.371 94.0663 125.904 94.0663 125.904C107.581 124.655 120.103 118.276 129.058 108.078C138.014 97.8797 142.722 84.6381 142.214 71.0756C141.706 57.5131 136.022 44.6606 126.329 35.1606C116.636 25.6606 103.672 20.2352 90.102 20Z" fill="#1E1E1E"/>
<path d="M96.6724 142.295C95.5238 142.062 94.3405 142.058 93.1905 142.284C92.0404 142.51 90.9464 142.961 89.9713 143.611C88.9961 144.261 88.1591 145.098 87.5082 146.072C86.8573 147.047 86.4055 148.141 86.1787 149.29C85.9318 150.44 85.918 151.628 86.138 152.783C86.3581 153.938 86.8075 155.037 87.4597 156.015C88.112 156.994 88.9538 157.831 89.9353 158.479C90.9169 159.126 92.0184 159.57 93.1745 159.784C94.3231 160.046 95.5128 160.07 96.6711 159.856C97.8293 159.641 98.9317 159.193 99.9108 158.538C100.89 157.883 101.725 157.036 102.365 156.047C103.006 155.059 103.438 153.95 103.635 152.788C104.028 150.482 103.526 148.112 102.232 146.162C100.939 144.213 98.9504 142.829 96.6724 142.295V142.295Z" fill="#E6007A"/>
</svg>
